<svg width="116" height="106" fill="none" xmlns="http://www.w3.org/2000/svg"><path d="M76.185 1.227c14.786 4.082 21.891 19.251 28.761 32.975 6.853 13.69 14.791 28.474 9.119 42.694-5.929 14.865-21.37 22.903-36.864 26.868-15.702 4.019-32.126 2.91-45.863-5.698C15.608 88.207-.102 73.96.001 55.388.1 37.08 16.889 24.612 31.803 14.01 45.007 4.623 60.572-3.083 76.185 1.227Z" fill="#B3EAD9"/><path d="M69.25 36h-22.5A3.75 3.75 0 0 0 43 39.75V73.5c0 1.953 2.031 3.125 3.75 2.188L58 69.124l11.172 6.563C70.89 76.624 73 75.453 73 73.5V39.75c0-2.031-1.719-3.75-3.75-3.75Zm0 35.313L58 64.75l-11.25 6.563V40.218c0-.235.156-.469.39-.469h21.563c.313 0 .547.234.547.469v31.093Z" fill="#fff"/></svg>