<svg width="116" height="106" fill="none" xmlns="http://www.w3.org/2000/svg"><path d="M76.185 1.227c14.786 4.082 21.891 19.251 28.761 32.975 6.853 13.69 14.791 28.474 9.119 42.694-5.929 14.865-21.37 22.903-36.864 26.868-15.702 4.019-32.126 2.91-45.863-5.698C15.608 88.207-.102 73.96.001 55.388.1 37.08 16.889 24.612 31.803 14.01 45.007 4.623 60.572-3.083 76.185 1.227Z" fill="#B3EAD9"/><path d="m82.844 50.953-6.64-16.094c-.313-.625-1.016-.937-1.641-.625l-9.22 3.75c-.624.313-.937 1.016-.624 1.641l.234.625-26.172 12.656c-.703.313-1.015 1.016-.703 1.64l.625 1.642-5 2.109c-.39.156-.703.703-.703 1.172 0 .078 0 .312.078.468l1.563 3.75c.156.47.703.782 1.172.782.078 0 .312 0 .468-.078l5-2.11.625 1.64a1.395 1.395 0 0 0 1.719.704l9.922-3.438v.079L49.953 71.5c-.39.938.156 2.031 1.172 2.344.156.156.39.156.547.156.703 0 1.484-.469 1.719-1.25l3.359-9.453c.39.078.781.078 1.172.078.39 0 .703 0 1.094-.078l3.359 9.453c.313.781 1.094 1.25 1.797 1.25.156 0 .39 0 .625-.078.937-.313 1.484-1.406 1.094-2.422l-3.594-10.234a5.46 5.46 0 0 0 1.25-3.438v-.078l7.5-2.656.234.625c.313.625 1.016.937 1.64.703l9.22-3.828c.703-.235 1.015-1.016.703-1.64Zm-24.922 8.672c-1.094 0-1.875-.86-1.875-1.875 0-1.094.781-1.875 1.875-1.875 1.016 0 1.875.781 1.875 1.875 0 1.016-.781 1.875-1.875 1.875Zm4.375-5.39c-1.094-1.25-2.578-2.11-4.375-2.11-3.047 0-5.469 2.5-5.547 5.547l-7.89 2.656-2.032-5L66.36 43.61l3.36 8.047-7.422 2.578Zm11.562-2.266-4.843-11.563 4.609-1.875 4.766 11.563-4.532 1.875Z" fill="#fff"/></svg>