<svg width="116" height="106" fill="none" xmlns="http://www.w3.org/2000/svg"><path d="M76.185 1.227c14.786 4.082 21.891 19.251 28.761 32.975 6.853 13.69 14.791 28.474 9.119 42.694-5.929 14.865-21.37 22.903-36.864 26.868-15.702 4.019-32.126 2.91-45.863-5.698C15.608 88.207-.102 73.96.001 55.388.1 37.08 16.889 24.612 31.803 14.01 45.007 4.623 60.572-3.083 76.185 1.227Z" fill="#B3EAD9"/><path d="M74.75 56c0 1.094-.86 1.875-1.875 1.875h-12.5v12.5c0 1.094-.86 1.953-1.875 1.953-1.094 0-1.875-.86-1.875-1.953v-12.5h-12.5c-1.094 0-1.875-.781-1.875-1.797 0-1.094.781-1.953 1.875-1.953h12.5v-12.5c0-1.016.781-1.797 1.875-1.797 1.016 0 1.875.781 1.875 1.797v12.5h12.5c1.016 0 1.875.86 1.875 1.875Z" fill="#fff"/></svg>