<svg width="102" height="102" fill="none" xmlns="http://www.w3.org/2000/svg"><rect width="102" height="102" rx="51" fill="#fff"/><path d="M53.938 53.563h-5.626A10.29 10.29 0 0 0 38 63.874c0 1.055.82 1.875 1.875 1.875h22.5c.996 0 1.875-.82 1.875-1.875 0-5.684-4.629-10.313-10.313-10.313Zm-13.126 9.374c.47-3.69 3.633-6.562 7.5-6.562h5.626c3.808 0 6.972 2.871 7.44 6.563H40.813ZM51.126 50.75c4.102 0 7.5-3.34 7.5-7.5 0-4.102-3.398-7.5-7.5-7.5-4.16 0-7.5 3.398-7.5 7.5 0 4.16 3.34 7.5 7.5 7.5Zm0-12.188a4.701 4.701 0 0 1 4.688 4.688 4.664 4.664 0 0 1-4.688 4.688c-2.637 0-4.688-2.051-4.688-4.688a4.664 4.664 0 0 1 4.688-4.688Z" fill="#00B880"/></svg>