<svg width="64" height="32" fill="none" xmlns="http://www.w3.org/2000/svg"><path d="M12 11.313c0-.381.293-.704.703-.704h11.719c.38 0 .703.323.703.704 0 .41-.322.703-.703.703H12.703a.677.677 0 0 1-.703-.704ZM12 16c0-.38.293-.703.703-.703h11.719c.38 0 .703.322.703.703 0 .41-.322.703-.703.703H12.703A.677.677 0 0 1 12 16Zm12.422 5.39H12.703a.677.677 0 0 1-.703-.703c0-.38.293-.703.703-.703h11.719c.38 0 .703.323.703.703 0 .41-.322.704-.703.704ZM47.5 7.5A8.495 8.495 0 0 0 39 16c0 4.715 3.785 8.5 8.5 8.5 4.682 0 8.5-3.785 8.5-8.5 0-4.682-3.818-8.5-8.5-8.5Zm0 4.25c1.295 0 2.39 1.096 2.39 2.39a2.402 2.402 0 0 1-2.39 2.391 2.38 2.38 0 0 1-2.39-2.39 2.402 2.402 0 0 1 2.39-2.391Zm0 10.625a6.347 6.347 0 0 1-4.516-1.86 3.685 3.685 0 0 1 3.453-2.39h2.126c1.56 0 2.888.996 3.42 2.39a6.328 6.328 0 0 1-4.483 1.86Z" fill="#3C3E40"/><rect x=".5" y=".5" width="63" height="31" rx="15.5" stroke="#3C3E40"/></svg>