<svg width="104" height="41" viewBox="0 0 104 41" fill="none" xmlns="http://www.w3.org/2000/svg">
<g clipPath="url(#clip0_3769_7401)">
<path d="M21.5657 7.92688H10.873V17.1797H21.5657V7.92688Z" fill="white"/>
<path d="M31.7054 17.3461C29.0261 17.3461 27.4746 15.4169 27.4746 12.5214C27.4746 9.62593 29.1312 7.75696 31.7825 7.75696C33.8174 7.75696 35.2708 8.93215 35.6351 10.9993H34.0941C33.8174 9.74628 32.9208 9.08436 31.73 9.08436C30.2765 9.08436 29.1277 10.2843 29.1277 12.5179C29.1277 14.7515 30.252 16.0151 31.716 16.0151C32.9558 16.0151 33.8384 15.3638 34.1151 14.1001H35.6561C35.2778 16.1673 33.8104 17.3425 31.7019 17.3425L31.7054 17.3461Z" fill="white"/>
<path d="M40.0446 16.0824C40.8292 16.0824 41.4456 15.7638 41.7118 15.1231H43.1897C42.8745 16.2204 41.8624 17.346 40.1077 17.346C37.9222 17.346 36.6719 15.6611 36.6719 13.693C36.6719 11.6258 38.0728 10.1569 40.0061 10.1569C42.09 10.1569 43.3929 11.8665 43.2668 14.178H38.2024C38.304 15.4558 39.1866 16.0824 40.0481 16.0824H40.0446ZM41.7363 13.0701C41.6977 11.9975 40.8887 11.3462 40.0061 11.3462C39.2986 11.3462 38.325 11.7674 38.1989 13.0701H41.7363Z" fill="white"/>
<path d="M48.0687 10.1569C49.7113 10.1569 50.3803 11.2294 50.3803 12.8648V17.1797H48.8778V13.2329C48.8778 12.3019 48.7377 11.3958 47.5889 11.3958C46.4401 11.3958 46.0093 12.2878 46.0093 13.5267V17.1797H44.5068V10.3091H46.0093V11.2683C46.4016 10.5533 47.1196 10.1569 48.0687 10.1569V10.1569Z" fill="white"/>
<path d="M53.6651 8.4967V10.309H55.031V11.4064H53.6651V15.1478C53.6651 15.8487 53.8297 16.0151 54.4741 16.0151H55.017V17.1761H53.9067C52.4533 17.1761 52.1626 16.7797 52.1626 15.3744V11.4064H51.1504V10.309H52.1626V8.4967H53.6651Z" fill="white"/>
<path d="M59.1638 16.0824C59.9483 16.0824 60.5647 15.7638 60.8309 15.1231H62.3089C61.9937 16.2204 60.9815 17.346 59.2268 17.346C57.0414 17.346 55.791 15.6611 55.791 13.693C55.791 11.6258 57.192 10.1569 59.1253 10.1569C61.2092 10.1569 62.512 11.8665 62.3859 14.178H57.3215C57.4231 15.4558 58.3057 16.0824 59.1673 16.0824H59.1638ZM60.8554 13.0701C60.8169 11.9975 60.0078 11.3462 59.1253 11.3462C58.4178 11.3462 57.4441 11.7674 57.318 13.0701H60.8554Z" fill="white"/>
<path d="M66.6166 11.817C65.6674 11.817 65.1246 12.1993 65.1246 13.5798V17.1797H63.6221V10.3091H65.1001V11.5338C65.4678 10.7692 66.1227 10.3091 66.9458 10.2949C67.0579 10.2949 67.2225 10.3091 67.3381 10.3197V11.8524C67.0859 11.8276 66.8442 11.8135 66.6166 11.8135V11.817Z" fill="white"/>
<path d="M30.2133 21.3743H30.8087V22.5353H30.3779C29.6319 22.5353 29.4673 22.6769 29.4673 23.3919V23.7636H30.8052V24.8609H29.4673V30.6307H27.9648V24.8609H27.0156V23.7636H27.9648V23.3424C27.9648 21.7353 28.5707 21.3778 30.2133 21.3778V21.3743Z" fill="white"/>
<path d="M34.5494 30.7971C32.8928 30.7971 31.2012 29.6856 31.2012 27.2078C31.2012 24.73 32.8928 23.6079 34.5494 23.6079C36.206 23.6079 37.8977 24.73 37.8977 27.2078C37.8977 29.6856 36.206 30.7971 34.5494 30.7971ZM36.3426 27.2078C36.3426 25.6256 35.4951 24.8468 34.5494 24.8468C33.6038 24.8468 32.7562 25.6256 32.7562 27.2078C32.7562 28.7901 33.6038 29.5582 34.5494 29.5582C35.4951 29.5582 36.3426 28.7936 36.3426 27.2078Z" fill="white"/>
<path d="M42.1283 25.2679C41.1792 25.2679 40.6363 25.6502 40.6363 27.0307V30.6306H39.1338V23.76H40.6118V24.9848C40.9795 24.2202 41.6345 23.76 42.4575 23.7458C42.5696 23.7458 42.7342 23.76 42.8498 23.7706V25.3033C42.5976 25.2786 42.3559 25.2644 42.1283 25.2644V25.2679Z" fill="white"/>
<path d="M46.7793 30.6307V21.3743H48.3834V30.6307H46.7793Z" fill="white"/>
<path d="M50.1519 30.6307V23.7601H51.6544V24.7194C52.0467 24.0044 52.7157 23.6079 53.6263 23.6079C54.6735 23.6079 55.2934 24.0539 55.6086 24.822C56.19 23.9548 56.985 23.6079 57.8186 23.6079C59.4227 23.6079 60.0426 24.6804 60.0426 26.3158V30.6307H58.5401V26.6839C58.5401 25.753 58.4525 24.8468 57.3388 24.8468C56.225 24.8468 55.8468 25.7388 55.8468 26.9777V30.6307H54.3443V26.6839C54.3443 25.753 54.2567 24.8468 53.1429 24.8468C52.0292 24.8468 51.6509 25.7388 51.6509 26.9777V30.6307H50.1484H50.1519Z" fill="white"/>
<path d="M65.7835 26.3406V26.2131C65.7835 25.038 65.1145 24.6804 64.3685 24.6804C63.6225 24.6804 63.0411 25.0875 63.0026 25.9193H61.5246C61.6262 24.5141 62.7749 23.5583 64.4175 23.5583C66.0601 23.5583 67.3245 24.3123 67.286 26.5069C67.286 26.8503 67.2614 27.6574 67.2614 28.2803C67.2614 29.1476 67.3385 30.0537 67.4646 30.6307H66.0882C66.0391 30.3369 65.9866 30.1706 65.9621 29.6998C65.5313 30.4396 64.7222 30.7971 63.7276 30.7971C62.2496 30.7971 61.2129 29.9936 61.2129 28.7405C61.2129 27.0308 63.2968 26.5954 65.787 26.3406H65.7835ZM62.803 28.7016C62.803 29.3033 63.2968 29.6608 64.0533 29.6608C65.1635 29.6608 65.822 29.0874 65.822 27.9228V27.399C63.675 27.6043 62.803 27.9087 62.803 28.7016Z" fill="white"/>
<path d="M74.8192 23.7601V29.9405C74.8192 31.0626 74.5425 31.8555 73.9996 32.3652C73.4568 32.8749 72.6477 33.105 71.5865 33.105C70.0945 33.105 68.9072 32.5032 68.6796 30.9989H70.1716C70.3117 31.636 70.7284 31.905 71.625 31.905C72.294 31.905 72.7248 31.7139 72.977 31.4059C73.2291 31.1121 73.3167 30.6909 73.3167 30.2449V29.4414C72.9139 30.1175 72.2064 30.5139 71.2958 30.5139C69.6918 30.5139 68.3398 29.1971 68.3398 27.0521C68.3398 24.907 69.6918 23.6044 71.2958 23.6044C72.2064 23.6044 72.9139 24.0008 73.3167 24.6769V23.7566H74.8192V23.7601ZM69.9054 27.0556C69.9054 28.4609 70.6269 29.3139 71.625 29.3139C72.6232 29.3139 73.3797 28.5989 73.3797 27.0556C73.3797 25.5123 72.6092 24.822 71.625 24.822C70.6409 24.822 69.9054 25.6786 69.9054 27.0556Z" fill="white"/>
<path d="M78.0025 22.9034H76.5V21.3707H78.0025V22.9034ZM78.0025 30.6271H76.5V23.7565H78.0025V30.6271Z" fill="white"/>
<path d="M83.2601 23.6079C84.9027 23.6079 85.5717 24.6804 85.5717 26.3158V30.6307H84.0692V26.6839C84.0692 25.753 83.9291 24.8468 82.7803 24.8468C81.6315 24.8468 81.2008 25.7388 81.2008 26.9777V30.6307H79.6982V23.7601H81.2008V24.7194C81.593 24.0044 82.311 23.6079 83.2601 23.6079V23.6079Z" fill="white"/>
<path d="M93.1541 23.7601V29.9405C93.1541 31.0626 92.8775 31.8555 92.3346 32.3652C91.7917 32.8749 90.9827 33.105 89.9215 33.105C88.4295 33.105 87.2422 32.5032 87.0145 30.9989H88.5065C88.6466 31.636 89.0634 31.905 89.96 31.905C90.629 31.905 91.0597 31.7139 91.3119 31.4059C91.5641 31.1121 91.6516 30.6909 91.6516 30.2449V29.4414C91.2489 30.1175 90.5414 30.5139 89.6308 30.5139C88.0267 30.5139 86.6748 29.1971 86.6748 27.0521C86.6748 24.907 88.0267 23.6044 89.6308 23.6044C90.5414 23.6044 91.2489 24.0008 91.6516 24.6769V23.7566H93.1541V23.7601ZM88.2404 27.0556C88.2404 28.4609 88.9618 29.3139 89.96 29.3139C90.9582 29.3139 91.7147 28.5989 91.7147 27.0556C91.7147 25.5123 90.9442 24.822 89.96 24.822C88.9758 24.822 88.2404 25.6786 88.2404 27.0556Z" fill="white"/>
</g>
<defs>
<clipPath id="clip0_3769_7401">
<rect width="82.3052" height="25.84" fill="white" transform="translate(10.873 7.57996)"/>
</clipPath>
</defs>
</svg>
