<svg width="167" height="70" viewBox="0 0 167 70" fill="none" xmlns="http://www.w3.org/2000/svg">
<g clipPath="url(#clip0_3611_9726)">
<path d="M29.6673 12.6968H10.6997V29.1103H29.6673V12.6968Z" fill="#E30613"/>
<path d="M47.6535 29.4055C42.9007 29.4055 40.1484 25.9834 40.1484 20.8471C40.1484 15.7109 43.0871 12.3955 47.7901 12.3955C51.3998 12.3955 53.9781 14.4802 54.6242 18.1471H51.8906C51.3998 15.9243 49.8093 14.7502 47.6969 14.7502C45.1186 14.7502 43.0809 16.8788 43.0809 20.8409C43.0809 24.8029 45.0752 27.0446 47.6721 27.0446C49.8714 27.0446 51.437 25.8892 51.9278 23.6476H54.6615C53.9905 27.3146 51.3873 29.3992 47.6472 29.3992L47.6535 29.4055Z" fill="#1D1D1B"/>
<path d="M62.4458 27.164C63.8374 27.164 64.9309 26.5989 65.4031 25.4624H68.0248C67.4657 27.4089 65.6702 29.4056 62.5576 29.4056C58.6808 29.4056 56.4629 26.4168 56.4629 22.9256C56.4629 19.2586 58.948 16.6528 62.3774 16.6528C66.074 16.6528 68.3852 19.6856 68.1615 23.7859H59.1779C59.358 26.0526 60.9237 27.164 62.452 27.164H62.4458ZM65.4465 21.8205C65.3782 19.9179 63.9431 18.7626 62.3774 18.7626C61.1225 18.7626 59.3953 19.5098 59.1717 21.8205H65.4465Z" fill="#1D1D1B"/>
<path d="M76.6792 16.6528C79.593 16.6528 80.7797 18.5554 80.7797 21.4563V29.1105H78.1144V22.1093C78.1144 20.4579 77.8659 18.8505 75.8281 18.8505C73.7903 18.8505 73.0261 20.4328 73.0261 22.6305V29.1105H70.3608V16.9228H73.0261V18.6245C73.7219 17.3561 74.9956 16.6528 76.6792 16.6528Z" fill="#1D1D1B"/>
<path d="M86.6073 13.708V16.9229H89.0302V18.8694H86.6073V25.5064C86.6073 26.7496 86.8993 27.0448 88.0424 27.0448H89.0054V29.1043H87.0359C84.4576 29.1043 83.942 28.401 83.942 25.9082V18.8694H82.1465V16.9229H83.942V13.708H86.6073Z" fill="#1D1D1B"/>
<path d="M96.3613 27.164C97.753 27.164 98.8464 26.5989 99.3186 25.4624H101.94C101.381 27.4089 99.5857 29.4056 96.4731 29.4056C92.5964 29.4056 90.3784 26.4168 90.3784 22.9256C90.3784 19.2586 92.8635 16.6528 96.293 16.6528C99.9896 16.6528 102.301 19.6856 102.077 23.7859H93.0934C93.2736 26.0526 94.8392 27.164 96.3675 27.164H96.3613ZM99.3621 21.8205C99.2937 19.9179 97.8586 18.7626 96.293 18.7626C95.038 18.7626 93.3108 19.5098 93.0872 21.8205H99.3621Z" fill="#1D1D1B"/>
<path d="M109.582 19.5975C107.899 19.5975 106.936 20.2756 106.936 22.7244V29.1103H104.271V16.9226H106.892V19.0951C107.545 17.7389 108.706 16.9226 110.166 16.8975C110.365 16.8975 110.657 16.9226 110.862 16.9414V19.6603C110.415 19.6163 109.986 19.5912 109.582 19.5912V19.5975Z" fill="#1D1D1B"/>
<path d="M45.0067 36.5513H46.0629V38.6108H45.2987C43.9754 38.6108 43.6834 38.862 43.6834 40.1303V40.7896H46.0567V42.7362H43.6834V52.971H41.0181V42.7362H39.3345V40.7896H41.0181V40.0424C41.0181 37.1917 42.0929 36.5575 45.0067 36.5575V36.5513Z" fill="#1D1D1B"/>
<path d="M52.6982 53.266C49.7596 53.266 46.7588 51.2943 46.7588 46.899C46.7588 42.5036 49.7596 40.5132 52.6982 40.5132C55.6368 40.5132 58.6376 42.5036 58.6376 46.899C58.6376 51.2943 55.6368 53.266 52.6982 53.266ZM55.8791 46.899C55.8791 44.0923 54.3756 42.7109 52.6982 42.7109C51.0207 42.7109 49.5173 44.0923 49.5173 46.899C49.5173 49.7057 51.0207 51.0683 52.6982 51.0683C54.3756 51.0683 55.8791 49.712 55.8791 46.899Z" fill="#1D1D1B"/>
<path d="M66.1425 43.4583C64.4588 43.4583 63.4958 44.1364 63.4958 46.5853V52.9711H60.8306V40.7834H63.4524V42.956C64.1047 41.5997 65.2665 40.7834 66.7265 40.7583C66.9253 40.7583 67.2173 40.7834 67.4223 40.8023V43.5211C66.975 43.4771 66.5463 43.452 66.1425 43.452V43.4583Z" fill="#1D1D1B"/>
<path d="M74.3931 52.971V36.5513H77.2385V52.971H74.3931Z" fill="#1D1D1B"/>
<path d="M80.3758 52.9709V40.7832H83.0411V42.4848C83.7369 41.2164 84.9236 40.5132 86.5389 40.5132C88.3965 40.5132 89.4962 41.3043 90.0553 42.6669C91.0867 41.1285 92.4969 40.5132 93.9756 40.5132C96.821 40.5132 97.9207 42.4157 97.9207 45.3167V52.9709H95.2554V45.9697C95.2554 44.3183 95.1001 42.7109 93.1244 42.7109C91.1488 42.7109 90.4778 44.2932 90.4778 46.4909V52.9709H87.8125V45.9697C87.8125 44.3183 87.6572 42.7109 85.6815 42.7109C83.7059 42.7109 83.0349 44.2932 83.0349 46.4909V52.9709H80.3696H80.3758Z" fill="#1D1D1B"/>
<path d="M108.104 45.3606V45.1346C108.104 43.0499 106.917 42.4158 105.594 42.4158C104.27 42.4158 103.239 43.1379 103.171 44.6134H100.549C100.729 42.1206 102.767 40.4253 105.681 40.4253C108.595 40.4253 110.837 41.7627 110.769 45.6558C110.769 46.2648 110.726 47.6965 110.726 48.8016C110.726 50.3399 110.862 51.9474 111.086 52.9709H108.644C108.557 52.4497 108.464 52.1546 108.421 51.3195C107.656 52.6318 106.221 53.266 104.457 53.266C101.835 53.266 99.9961 51.8406 99.9961 49.6178C99.9961 46.5851 103.693 45.8127 108.11 45.3606H108.104ZM102.817 49.5488C102.817 50.6162 103.693 51.2504 105.035 51.2504C107.004 51.2504 108.172 50.2332 108.172 48.1674V47.2381C104.364 47.6023 102.817 48.1423 102.817 49.5488Z" fill="#1D1D1B"/>
<path d="M124.132 40.7831V51.7464C124.132 53.7368 123.641 55.1433 122.679 56.0475C121.716 56.9517 120.28 57.3599 118.398 57.3599C115.751 57.3599 113.645 56.2924 113.241 53.6238H115.888C116.136 54.754 116.876 55.2313 118.466 55.2313C119.653 55.2313 120.417 54.8922 120.864 54.3459C121.312 53.8247 121.467 53.0775 121.467 52.2864V50.861C120.753 52.0603 119.498 52.7636 117.882 52.7636C115.037 52.7636 112.639 50.4278 112.639 46.6226C112.639 42.8175 115.037 40.5068 117.882 40.5068C119.498 40.5068 120.753 41.2101 121.467 42.4094V40.7768H124.132V40.7831ZM115.416 46.6289C115.416 49.1217 116.696 50.635 118.466 50.635C120.237 50.635 121.579 49.3666 121.579 46.6289C121.579 43.8913 120.212 42.6668 118.466 42.6668C116.72 42.6668 115.416 44.1864 115.416 46.6289Z" fill="#1D1D1B"/>
<path d="M129.78 39.2638H127.115V36.5449H129.78V39.2638ZM129.78 52.9647H127.115V40.777H129.78V52.9647Z" fill="#1D1D1B"/>
<path d="M139.105 40.5132C142.019 40.5132 143.206 42.4157 143.206 45.3167V52.9709H140.541V45.9697C140.541 44.3183 140.292 42.7109 138.254 42.7109C136.217 42.7109 135.452 44.2932 135.452 46.4909V52.9709H132.787V40.7832H135.452V42.4848C136.148 41.2164 137.422 40.5132 139.105 40.5132Z" fill="#1D1D1B"/>
<path d="M156.656 40.7831V51.7464C156.656 53.7368 156.165 55.1433 155.202 56.0475C154.239 56.9517 152.804 57.3599 150.922 57.3599C148.275 57.3599 146.169 56.2924 145.765 53.6238H148.412C148.66 54.754 149.4 55.2313 150.99 55.2313C152.177 55.2313 152.941 54.8922 153.388 54.3459C153.836 53.8247 153.991 53.0775 153.991 52.2864V50.861C153.276 52.0603 152.021 52.7636 150.406 52.7636C147.561 52.7636 145.163 50.4278 145.163 46.6226C145.163 42.8175 147.561 40.5068 150.406 40.5068C152.021 40.5068 153.276 41.2101 153.991 42.4094V40.7768H156.656V40.7831ZM147.94 46.6289C147.94 49.1217 149.22 50.635 150.99 50.635C152.761 50.635 154.103 49.3666 154.103 46.6289C154.103 43.8913 152.736 42.6668 150.99 42.6668C149.244 42.6668 147.94 44.1864 147.94 46.6289Z" fill="#1D1D1B"/>
</g>
<defs>
<clipPath id="clip0_3611_9726">
<rect width="146" height="45.8372" fill="white" transform="translate(10.6997 12.0815)"/>
</clipPath>
</defs>
</svg>
