<svg width="84" height="41" viewBox="0 0 84 41" fill="none" xmlns="http://www.w3.org/2000/svg">
<g clip-path="url(#clip0_3769_7399)">
<path d="M10.3086 18.7924H14.2918V14.6802H23.6697V11.265H10.3086V18.7924Z" fill="white"/>
<path d="M10.3086 29.735H23.6697V26.3198H14.2918V22.2076H10.3086V29.735Z" fill="white"/>
<path d="M14.292 18.7924H22.8683V22.2076H14.292V18.7924Z" fill="white"/>
<path d="M40.2788 12.9622C39.7123 12.4183 39.0379 11.9992 38.2994 11.732C37.3486 11.3974 36.3448 11.2391 35.3372 11.2651H27.085V29.7351H31.0682V22.2077H35.3372C36.3401 22.2319 37.3391 22.0737 38.2854 21.7407C39.029 21.4753 39.7082 21.0561 40.2788 20.5105C40.7746 20.0198 41.1544 19.4245 41.3905 18.7681C41.8551 17.4582 41.8551 16.0285 41.3905 14.7186C41.1553 14.0577 40.7755 13.4576 40.2788 12.9622V12.9622ZM37.4909 17.7923C37.2866 18.0656 37.0153 18.2816 36.7033 18.4196C36.3404 18.5747 35.9563 18.6746 35.5637 18.7158C35.1173 18.7684 34.6681 18.794 34.2186 18.7925H31.0682V14.6803H34.222C34.6716 14.6787 35.1208 14.7043 35.5672 14.7569C35.9603 14.7975 36.3446 14.8986 36.7068 15.0566C37.0181 15.1927 37.2884 15.4077 37.4909 15.6804C37.6998 15.988 37.8048 16.3544 37.7906 16.7259C37.8093 17.1045 37.7041 17.4789 37.4909 17.7923V17.7923Z" fill="white"/>
<path d="M64.4881 26.3198V11.265H60.5049V29.735H73.866V26.3198H64.4881Z" fill="white"/>
<path d="M44.2588 18.7924H48.242V14.6802H57.6199V11.265H44.2588V18.7924Z" fill="white"/>
<path d="M44.2588 22.2076H48.242V29.735H44.2588V22.2076Z" fill="white"/>
<path d="M48.2422 18.7924H56.8185V22.2076H48.2422V18.7924Z" fill="white"/>
</g>
<defs>
<clipPath id="clip0_3769_7399">
<rect width="63.5647" height="18.47" fill="white" transform="translate(10.3086 11.265)"/>
</clipPath>
</defs>
</svg>
