<svg width="153" height="70" viewBox="0 0 153 70" fill="none" xmlns="http://www.w3.org/2000/svg">
<g clipPath="url(#clip0_3611_9725)">
<path d="M10.2998 31.4431H18.5966V22.8778H38.1299V15.7642H10.2998V31.4431Z" fill="#FF0000"/>
<path d="M10.2998 54.2356H38.1299V47.122H18.5966V38.5566H10.2998V54.2356Z" fill="#FF0000"/>
<path d="M18.5967 31.4429H36.4605V38.5565H18.5967V31.4429Z" fill="#FF0000"/>
<path d="M72.7254 19.299C71.5453 18.1661 70.1407 17.2932 68.6024 16.7367C66.6221 16.0396 64.5311 15.71 62.4324 15.764H45.2437V54.2355H53.5404V38.5566H62.4324C64.5214 38.607 66.6022 38.2774 68.5733 37.5839C70.122 37.031 71.5368 36.1579 72.7254 35.0215C73.758 33.9994 74.5492 32.7594 75.0409 31.3921C76.0086 28.6639 76.0086 25.6857 75.0409 22.9575C74.551 21.5808 73.7599 20.3309 72.7254 19.299ZM66.9183 29.3597C66.4928 29.9289 65.9278 30.3789 65.2779 30.6663C64.5219 30.9894 63.7218 31.1974 62.9042 31.2833C61.9744 31.3929 61.0387 31.4462 60.1024 31.443H53.5404V22.8776H60.1096C61.0459 22.8743 61.9816 22.9276 62.9115 23.0373C63.7302 23.1218 64.5308 23.3324 65.2851 23.6616C65.9335 23.9449 66.4965 24.3928 66.9183 24.9609C67.3534 25.6016 67.5722 26.3646 67.5426 27.1385C67.5817 27.9271 67.3625 28.7069 66.9183 29.3597Z" fill="#FF0000"/>
<path d="M123.152 47.1221V15.7642H114.855V54.2357H142.685V47.1221H123.152Z" fill="#FF0000"/>
<path d="M81.0146 31.4431H89.3114V22.8778H108.845V15.7642H81.0146V31.4431Z" fill="#FF0000"/>
<path d="M81.0146 38.5566H89.3114V54.2356H81.0146V38.5566Z" fill="#FF0000"/>
<path d="M89.3115 31.4429H107.175V38.5565H89.3115V31.4429Z" fill="#FF0000"/>
</g>
<defs>
<clipPath id="clip0_3611_9725">
<rect width="132.4" height="38.4715" fill="white" transform="translate(10.2998 15.7642)"/>
</clipPath>
</defs>
</svg>
