<svg width="178" height="178" viewBox="0 0 178 178" fill="none" xmlns="http://www.w3.org/2000/svg">
<path d="M161.248 129.048C164.337 130.76 168.252 129.652 169.738 126.448C175.324 114.406 178.156 101.24 177.993 87.9127C177.804 72.4491 173.589 57.3016 165.764 43.963C157.938 30.6244 146.772 19.5552 133.365 11.8462C119.959 4.1372 104.775 0.0545259 89.3107 0.000542251C73.846 -0.0534414 58.6342 3.92313 45.1743 11.5383C31.7145 19.1535 20.4712 30.1446 12.5526 43.4282C4.63395 56.7118 0.313289 71.8295 0.0164019 87.2914C-0.239475 100.618 2.50118 113.803 8.00258 125.884C9.4662 129.098 13.3732 130.233 16.4739 128.542V128.542C19.5746 126.852 20.6909 122.977 19.2662 119.745C14.8064 109.63 12.5901 98.6405 12.8033 87.5369C13.0576 74.2969 16.7574 61.3516 23.5381 49.9768C30.3188 38.6021 39.9464 29.1905 51.4721 22.6696C62.9977 16.1487 76.0236 12.7435 89.266 12.7898C102.508 12.836 115.51 16.332 126.99 22.9332C138.47 29.5344 148.032 39.013 154.733 50.4348C161.434 61.8566 165.043 74.8274 165.205 88.0689C165.341 99.1737 163.048 110.147 158.518 120.231C157.07 123.453 158.159 127.336 161.248 129.048V129.048Z" fill="#B3EAD9"/>
<path d="M83.1471 36.5233C83.4981 33.3785 86.1569 31 89.3213 31V31C92.5092 31 95.1798 33.413 95.5019 36.5847L100.693 87.6886C101.392 94.5752 95.9869 100.557 89.0649 100.557V100.557C82.0965 100.557 76.6763 94.4986 77.4492 87.5732L83.1471 36.5233Z" fill="#00B880"/>
<circle cx="89.5" cy="96.5" r="15.5" fill="#B3EAD9"/>
<path d="M70.6917 165.497C68.0402 165.497 65.6787 165.041 63.6072 164.13C61.5475 163.207 59.9199 161.94 58.7243 160.33C57.5406 158.709 56.931 156.838 56.8955 154.719H64.637C64.6843 155.607 64.9743 156.388 65.507 157.063C66.0515 157.726 66.7736 158.241 67.6732 158.608C68.5728 158.975 69.5849 159.158 70.7094 159.158C71.8813 159.158 72.9171 158.951 73.8167 158.537C74.7163 158.123 75.4206 157.548 75.9296 156.815C76.4386 156.081 76.6931 155.234 76.6931 154.276C76.6931 153.305 76.4208 152.447 75.8763 151.701C75.3437 150.943 74.5742 150.352 73.5681 149.925C72.5738 149.499 71.3901 149.286 70.017 149.286H66.6256V143.64H70.017C71.177 143.64 72.2009 143.439 73.0887 143.036C73.9883 142.634 74.6867 142.077 75.1839 141.367C75.681 140.645 75.9296 139.805 75.9296 138.846C75.9296 137.934 75.7106 137.135 75.2726 136.449C74.8465 135.75 74.2428 135.206 73.4616 134.815C72.6921 134.425 71.7925 134.229 70.7627 134.229C69.721 134.229 68.7681 134.419 67.904 134.798C67.0399 135.164 66.3474 135.691 65.8266 136.378C65.3058 137.064 65.0276 137.869 64.9921 138.793H57.6235C57.659 136.697 58.2568 134.851 59.4168 133.253C60.5769 131.655 62.1394 130.406 64.1043 129.506C66.0811 128.595 68.3124 128.139 70.7982 128.139C73.3077 128.139 75.5035 128.595 77.3856 129.506C79.2677 130.418 80.7296 131.649 81.7712 133.2C82.8247 134.738 83.3456 136.467 83.3337 138.384C83.3456 140.42 82.7123 142.119 81.4339 143.48C80.1673 144.841 78.516 145.705 76.48 146.072V146.356C79.1552 146.7 81.1912 147.629 82.588 149.144C83.9966 150.647 84.695 152.53 84.6832 154.79C84.695 156.862 84.0972 158.703 82.8898 160.312C81.6943 161.922 80.043 163.189 77.936 164.112C75.829 165.035 73.4142 165.497 70.6917 165.497Z" fill="#00B880"/>
<path d="M101.151 148.25L95.9946 167.406H93.1274L98.2836 148.25H101.151Z" fill="#00B880"/>
<path d="M114.659 165.219C113.554 165.219 112.57 165.016 111.706 164.609C110.846 164.203 110.164 163.643 109.659 162.93C109.153 162.216 108.89 161.398 108.87 160.477H112.151C112.187 161.096 112.448 161.599 112.932 161.984C113.416 162.37 113.992 162.562 114.659 162.562C115.19 162.562 115.659 162.445 116.065 162.211C116.476 161.971 116.797 161.641 117.026 161.219C117.26 160.792 117.377 160.302 117.377 159.75C117.377 159.187 117.258 158.693 117.018 158.266C116.784 157.838 116.458 157.505 116.041 157.266C115.625 157.026 115.148 156.904 114.612 156.898C114.143 156.898 113.687 156.995 113.245 157.187C112.807 157.38 112.466 157.643 112.221 157.977L109.213 157.437L109.971 149H119.752V151.766H112.76L112.346 155.773H112.44C112.721 155.378 113.146 155.049 113.713 154.789C114.281 154.529 114.916 154.398 115.62 154.398C116.583 154.398 117.442 154.625 118.198 155.078C118.953 155.531 119.549 156.154 119.987 156.945C120.424 157.732 120.64 158.638 120.635 159.664C120.64 160.742 120.39 161.7 119.885 162.539C119.385 163.372 118.685 164.029 117.784 164.508C116.888 164.982 115.846 165.219 114.659 165.219Z" fill="#00B880"/>
</svg>
