<svg width="178" height="178" viewBox="0 0 178 178" fill="none" xmlns="http://www.w3.org/2000/svg">
<path d="M161.248 129.048C164.337 130.76 168.252 129.652 169.738 126.448C175.324 114.406 178.156 101.24 177.993 87.9127C177.804 72.4491 173.589 57.3016 165.764 43.963C157.938 30.6244 146.772 19.5552 133.365 11.8462C119.959 4.1372 104.775 0.0545259 89.3107 0.000542251C73.846 -0.0534414 58.6342 3.92313 45.1743 11.5383C31.7145 19.1535 20.4712 30.1446 12.5526 43.4282C4.63395 56.7118 0.313289 71.8295 0.0164019 87.2914C-0.239475 100.618 2.50118 113.803 8.00258 125.884C9.4662 129.098 13.3732 130.233 16.4739 128.542V128.542C19.5746 126.852 20.6909 122.977 19.2662 119.745C14.8064 109.63 12.5901 98.6405 12.8033 87.5369C13.0576 74.2969 16.7574 61.3516 23.5381 49.9768C30.3188 38.6021 39.9464 29.1905 51.4721 22.6696C62.9977 16.1487 76.0236 12.7435 89.266 12.7898C102.508 12.836 115.51 16.332 126.99 22.9332C138.47 29.5344 148.032 39.013 154.733 50.4348C161.434 61.8566 165.043 74.8274 165.205 88.0689C165.341 99.1737 163.048 110.147 158.518 120.231C157.07 123.453 158.159 127.336 161.248 129.048V129.048Z" fill="#B3EAD9"/>
<path d="M143.858 90.5417C147.002 90.8927 149.381 93.5514 149.381 96.7158V96.7158C149.381 99.9038 146.968 102.574 143.796 102.896L92.6923 108.087C85.8057 108.787 79.8234 103.381 79.8234 96.4594V96.4594C79.8234 89.491 85.8823 84.0708 92.8076 84.8438L143.858 90.5417Z" fill="#00B880"/>
<circle cx="89.5" cy="96.5" r="15.5" fill="#B3EAD9"/>
<path d="M71.3972 165.497C68.8877 165.497 66.6505 165.035 64.6855 164.112C62.7324 163.189 61.1818 161.916 60.0336 160.295C58.8854 158.673 58.2876 156.814 58.2402 154.719H65.6976C65.7805 156.128 66.3723 157.27 67.4732 158.146C68.574 159.022 69.882 159.46 71.3972 159.46C72.6046 159.46 73.6699 159.194 74.5932 158.661C75.5284 158.117 76.2563 157.365 76.7772 156.406C77.3098 155.435 77.5762 154.323 77.5762 153.068C77.5762 151.79 77.3039 150.665 76.7594 149.694C76.2267 148.724 75.4869 147.966 74.54 147.422C73.593 146.877 72.5099 146.599 71.2907 146.587C70.2253 146.587 69.1896 146.806 68.1834 147.244C67.1891 147.682 66.4138 148.28 65.8574 149.038L59.0215 147.812L60.7438 128.636H82.9739V134.922H67.0826L66.1415 144.03H66.3546C66.9938 143.131 67.9585 142.385 69.2488 141.793C70.539 141.201 71.9831 140.905 73.5811 140.905C75.771 140.905 77.7241 141.42 79.4405 142.45C81.1569 143.48 82.5123 144.895 83.5066 146.694C84.5009 148.481 84.9921 150.541 84.9803 152.873C84.9921 155.323 84.4239 157.501 83.2757 159.407C82.1394 161.301 80.5473 162.792 78.4995 163.881C76.4635 164.958 74.0961 165.497 71.3972 165.497Z" fill="#00B880"/>
<path d="M101.284 148.25L96.1275 167.406H93.2603L98.4165 148.25H101.284Z" fill="#00B880"/>
<path d="M114.792 165.219C113.687 165.219 112.703 165.015 111.838 164.609C110.979 164.203 110.297 163.643 109.792 162.93C109.286 162.216 109.023 161.398 109.002 160.476H112.284C112.32 161.096 112.581 161.599 113.065 161.984C113.549 162.37 114.125 162.562 114.792 162.562C115.323 162.562 115.792 162.445 116.198 162.211C116.609 161.971 116.93 161.64 117.159 161.219C117.393 160.792 117.51 160.302 117.51 159.75C117.51 159.187 117.391 158.693 117.151 158.265C116.917 157.838 116.591 157.505 116.174 157.265C115.758 157.026 115.281 156.904 114.745 156.898C114.276 156.898 113.82 156.995 113.377 157.187C112.94 157.38 112.599 157.643 112.354 157.976L109.346 157.437L110.104 149H119.885V151.765H112.893L112.479 155.773H112.573C112.854 155.377 113.279 155.049 113.846 154.789C114.414 154.529 115.049 154.398 115.752 154.398C116.716 154.398 117.575 154.625 118.331 155.078C119.086 155.531 119.682 156.154 120.12 156.945C120.557 157.732 120.773 158.638 120.768 159.664C120.773 160.742 120.523 161.7 120.018 162.539C119.518 163.372 118.818 164.029 117.917 164.508C117.021 164.982 115.979 165.219 114.792 165.219Z" fill="#00B880"/>
</svg>
