<svg width="178" height="178" viewBox="0 0 178 178" fill="none" xmlns="http://www.w3.org/2000/svg">
<path d="M161.248 129.048C164.337 130.76 168.252 129.652 169.738 126.448C175.324 114.406 178.156 101.24 177.993 87.9127C177.804 72.4491 173.589 57.3016 165.764 43.963C157.938 30.6244 146.772 19.5552 133.365 11.8462C119.959 4.1372 104.775 0.0545259 89.3107 0.000542251C73.846 -0.0534414 58.6342 3.92313 45.1743 11.5383C31.7145 19.1535 20.4712 30.1446 12.5526 43.4282C4.63395 56.7118 0.313289 71.8295 0.0164019 87.2914C-0.239475 100.618 2.50118 113.803 8.00258 125.884C9.4662 129.098 13.3732 130.233 16.4739 128.542V128.542C19.5746 126.852 20.6909 122.977 19.2662 119.745C14.8064 109.63 12.5901 98.6405 12.8033 87.5369C13.0576 74.2969 16.7574 61.3516 23.5381 49.9768C30.3188 38.6021 39.9464 29.1905 51.4721 22.6696C62.9977 16.1487 76.0236 12.7435 89.266 12.7898C102.508 12.836 115.51 16.332 126.99 22.9332C138.47 29.5344 148.032 39.013 154.733 50.4348C161.434 61.8566 165.043 74.8274 165.205 88.0689C165.341 99.1737 163.048 110.147 158.518 120.231C157.07 123.453 158.159 127.336 161.248 129.048V129.048Z" fill="#B3EAD9"/>
<path d="M47.8558 57.8369C46.0124 55.265 46.3967 51.7184 48.7483 49.601V49.601C51.1174 47.4678 54.7166 47.4741 57.0783 49.6155L95.131 84.1197C100.259 88.7694 100.245 96.8321 95.1008 101.464V101.464C89.9223 106.127 81.84 105.251 77.7805 99.587L47.8558 57.8369Z" fill="#00B880"/>
<circle cx="89.5" cy="96.5" r="15.5" fill="#B3EAD9"/>
<path d="M57.983 165V159.46L70.9269 147.475C72.0278 146.41 72.9511 145.451 73.6968 144.599C74.4544 143.746 75.0285 142.912 75.4191 142.095C75.8097 141.267 76.0051 140.373 76.0051 139.414C76.0051 138.349 75.7624 137.431 75.2771 136.662C74.7918 135.881 74.1289 135.283 73.2884 134.869C72.448 134.442 71.4951 134.229 70.4298 134.229C69.3171 134.229 68.3464 134.454 67.5178 134.904C66.6892 135.354 66.05 135.999 65.6002 136.839C65.1504 137.68 64.9255 138.68 64.9255 139.84H57.6279C57.6279 137.461 58.1665 135.395 59.2437 133.643C60.3209 131.892 61.8301 130.536 63.7714 129.577C65.7127 128.619 67.9499 128.139 70.483 128.139C73.0872 128.139 75.354 128.601 77.2835 129.524C79.2248 130.436 80.734 131.702 81.8112 133.324C82.8883 134.946 83.4269 136.804 83.4269 138.899C83.4269 140.272 83.1547 141.628 82.6102 142.965C82.0775 144.303 81.1246 145.788 79.7515 147.422C78.3784 149.044 76.443 150.991 73.9454 153.263L68.6365 158.466V158.714H83.9063V165H57.983Z" fill="#00B880"/>
<path d="M100.418 148.25L95.2622 167.406H92.395L97.5512 148.25H100.418Z" fill="#00B880"/>
<path d="M113.926 165.219C112.822 165.219 111.838 165.016 110.973 164.609C110.114 164.203 109.431 163.643 108.926 162.93C108.421 162.216 108.158 161.398 108.137 160.477H111.418C111.455 161.096 111.715 161.599 112.2 161.984C112.684 162.37 113.26 162.562 113.926 162.562C114.457 162.562 114.926 162.445 115.332 162.211C115.744 161.971 116.064 161.641 116.293 161.219C116.528 160.792 116.645 160.302 116.645 159.75C116.645 159.187 116.525 158.693 116.286 158.266C116.051 157.838 115.726 157.505 115.309 157.266C114.892 157.026 114.416 156.904 113.879 156.898C113.411 156.898 112.955 156.995 112.512 157.187C112.075 157.38 111.734 157.643 111.489 157.977L108.481 157.437L109.239 149H119.02V151.766H112.028L111.614 155.773H111.707C111.989 155.378 112.413 155.049 112.981 154.789C113.549 154.529 114.184 154.398 114.887 154.398C115.851 154.398 116.71 154.625 117.465 155.078C118.22 155.531 118.817 156.154 119.254 156.945C119.692 157.732 119.908 158.638 119.903 159.664C119.908 160.742 119.658 161.7 119.153 162.539C118.653 163.372 117.952 164.029 117.051 164.508C116.155 164.982 115.114 165.219 113.926 165.219Z" fill="#00B880"/>
</svg>
