<svg width="178" height="178" viewBox="0 0 178 178" fill="none" xmlns="http://www.w3.org/2000/svg">
<path d="M161.248 129.048C164.337 130.76 168.252 129.652 169.738 126.448C175.324 114.406 178.156 101.24 177.993 87.9127C177.804 72.4491 173.589 57.3016 165.764 43.963C157.938 30.6244 146.772 19.5552 133.365 11.8462C119.959 4.1372 104.775 0.0545259 89.3107 0.000542251C73.846 -0.0534414 58.6342 3.92313 45.1743 11.5383C31.7145 19.1535 20.4712 30.1446 12.5526 43.4282C4.63395 56.7118 0.313289 71.8295 0.0164019 87.2914C-0.239475 100.618 2.50118 113.803 8.00258 125.884C9.4662 129.098 13.3732 130.233 16.4739 128.542V128.542C19.5746 126.852 20.6909 122.977 19.2662 119.745C14.8064 109.63 12.5901 98.6405 12.8033 87.5369C13.0576 74.2969 16.7574 61.3516 23.5381 49.9768C30.3188 38.6021 39.9464 29.1905 51.4721 22.6696C62.9977 16.1487 76.0236 12.7435 89.266 12.7898C102.508 12.836 115.51 16.332 126.99 22.9332C138.47 29.5344 148.032 39.013 154.733 50.4348C161.434 61.8566 165.043 74.8274 165.205 88.0689C165.341 99.1737 163.048 110.147 158.518 120.231C157.07 123.453 158.159 127.336 161.248 129.048V129.048Z" fill="#B3EAD9"/>
<path d="M123.528 49.5696C125.893 47.4674 129.46 47.4789 131.812 49.5963V49.5963C134.181 51.7294 134.551 55.3096 132.668 57.8822L102.33 99.3332C98.2422 104.919 90.2222 105.748 85.0782 101.116V101.116C79.8997 96.4533 79.9258 88.3238 85.1342 83.6944L123.528 49.5696Z" fill="#00B880"/>
<circle cx="89.5" cy="96.5" r="15.5" fill="#B3EAD9"/>
<path d="M56.7363 158.608V152.553L71.9174 128.636H77.1376V137.017H74.0481L64.4778 152.163V152.447H86.051V158.608H56.7363ZM74.1902 165V156.761L74.3322 154.08V128.636H81.541V165H74.1902Z" fill="#00B880"/>
<path d="M102.115 148.25L96.9585 167.406H94.0913L99.2475 148.25H102.115Z" fill="#00B880"/>
<path d="M115.623 165.219C114.518 165.219 113.534 165.015 112.669 164.609C111.81 164.203 111.128 163.643 110.623 162.93C110.117 162.216 109.854 161.398 109.833 160.476H113.115C113.151 161.096 113.412 161.599 113.896 161.984C114.38 162.37 114.956 162.562 115.623 162.562C116.154 162.562 116.623 162.445 117.029 162.211C117.44 161.971 117.761 161.64 117.99 161.219C118.224 160.792 118.341 160.302 118.341 159.75C118.341 159.187 118.221 158.693 117.982 158.265C117.748 157.838 117.422 157.505 117.005 157.265C116.589 157.026 116.112 156.904 115.576 156.898C115.107 156.898 114.651 156.995 114.208 157.187C113.771 157.38 113.43 157.643 113.185 157.976L110.177 157.437L110.935 149H120.716V151.765H113.724L113.31 155.773H113.404C113.685 155.377 114.109 155.049 114.677 154.789C115.245 154.529 115.88 154.398 116.583 154.398C117.547 154.398 118.406 154.625 119.162 155.078C119.917 155.531 120.513 156.154 120.951 156.945C121.388 157.732 121.604 158.638 121.599 159.664C121.604 160.742 121.354 161.7 120.849 162.539C120.349 163.372 119.649 164.029 118.748 164.508C117.852 164.982 116.81 165.219 115.623 165.219Z" fill="#00B880"/>
</svg>
