<svg width="178" height="178" viewBox="0 0 178 178" fill="none" xmlns="http://www.w3.org/2000/svg">
<path d="M161.248 129.048C164.337 130.76 168.252 129.652 169.738 126.448C175.324 114.406 178.156 101.24 177.993 87.9127C177.804 72.4491 173.589 57.3016 165.764 43.963C157.938 30.6244 146.772 19.5552 133.365 11.8462C119.959 4.1372 104.775 0.0545259 89.3107 0.000542251C73.846 -0.0534414 58.6342 3.92313 45.1743 11.5383C31.7145 19.1535 20.4712 30.1446 12.5526 43.4282C4.63395 56.7118 0.313289 71.8295 0.0164019 87.2914C-0.239475 100.618 2.50118 113.803 8.00258 125.884C9.4662 129.098 13.3732 130.233 16.4739 128.542V128.542C19.5746 126.852 20.6909 122.977 19.2662 119.745C14.8064 109.63 12.5901 98.6405 12.8033 87.5369C13.0576 74.2969 16.7574 61.3516 23.5381 49.9768C30.3188 38.6021 39.9464 29.1905 51.4721 22.6696C62.9977 16.1487 76.0236 12.7435 89.266 12.7898C102.508 12.836 115.51 16.332 126.99 22.9332C138.47 29.5344 148.032 39.013 154.733 50.4348C161.434 61.8566 165.043 74.8274 165.205 88.0689C165.341 99.1737 163.048 110.147 158.518 120.231C157.07 123.453 158.159 127.336 161.248 129.048V129.048Z" fill="#B3EAD9"/>
<path d="M123.528 49.5696C125.893 47.4674 129.46 47.4789 131.812 49.5963V49.5963C134.181 51.7294 134.551 55.3096 132.668 57.8822L102.33 99.3332C98.2422 104.919 90.2222 105.748 85.0782 101.116V101.116C79.8997 96.4533 79.9258 88.3238 85.1342 83.6944L123.528 49.5696Z" fill="#00B880"/>
<circle cx="89.5" cy="96.5" r="15.5" fill="#B3EAD9"/>
<path d="M39.7393 150V134H43.1221V147.211H49.9814V150H39.7393ZM58.1279 150.234C56.8936 150.234 55.8311 149.984 54.9404 149.484C54.055 148.979 53.3727 148.266 52.8936 147.344C52.4144 146.417 52.1748 145.32 52.1748 144.055C52.1748 142.82 52.4144 141.737 52.8936 140.805C53.3727 139.872 54.0472 139.146 54.917 138.625C55.792 138.104 56.818 137.844 57.9951 137.844C58.7868 137.844 59.5238 137.971 60.2061 138.227C60.8936 138.477 61.4925 138.854 62.0029 139.359C62.5186 139.865 62.9196 140.5 63.2061 141.266C63.4925 142.026 63.6357 142.917 63.6357 143.937V144.852H53.5029V142.789H60.5029C60.5029 142.31 60.3988 141.885 60.1904 141.516C59.9821 141.146 59.693 140.857 59.3232 140.648C58.9587 140.435 58.5342 140.328 58.0498 140.328C57.5446 140.328 57.0967 140.445 56.7061 140.68C56.3206 140.909 56.0186 141.219 55.7998 141.609C55.5811 141.995 55.4691 142.424 55.4639 142.898V144.859C55.4639 145.453 55.5732 145.966 55.792 146.398C56.016 146.831 56.3311 147.164 56.7373 147.398C57.1436 147.633 57.6253 147.75 58.1826 147.75C58.5524 147.75 58.891 147.698 59.1982 147.594C59.5055 147.49 59.7686 147.333 59.9873 147.125C60.2061 146.917 60.3727 146.661 60.4873 146.359L63.5654 146.562C63.4092 147.302 63.0889 147.948 62.6045 148.5C62.1253 149.047 61.5055 149.474 60.7451 149.781C59.9899 150.083 59.1175 150.234 58.1279 150.234ZM77.1729 138L72.9775 150H69.2275L65.0322 138H68.5479L71.04 146.586H71.165L73.6494 138H77.1729ZM84.458 150.234C83.2236 150.234 82.1611 149.984 81.2705 149.484C80.3851 148.979 79.7028 148.266 79.2236 147.344C78.7445 146.417 78.5049 145.32 78.5049 144.055C78.5049 142.82 78.7445 141.737 79.2236 140.805C79.7028 139.872 80.3773 139.146 81.2471 138.625C82.1221 138.104 83.1481 137.844 84.3252 137.844C85.1169 137.844 85.8538 137.971 86.5361 138.227C87.2236 138.477 87.8226 138.854 88.333 139.359C88.8486 139.865 89.2497 140.5 89.5361 141.266C89.8226 142.026 89.9658 142.917 89.9658 143.937V144.852H79.833V142.789H86.833C86.833 142.31 86.7288 141.885 86.5205 141.516C86.3122 141.146 86.0231 140.857 85.6533 140.648C85.2887 140.435 84.8643 140.328 84.3799 140.328C83.8747 140.328 83.4268 140.445 83.0361 140.68C82.6507 140.909 82.3486 141.219 82.1299 141.609C81.9111 141.995 81.7992 142.424 81.7939 142.898V144.859C81.7939 145.453 81.9033 145.966 82.1221 146.398C82.346 146.831 82.6611 147.164 83.0674 147.398C83.4736 147.633 83.9554 147.75 84.5127 147.75C84.8825 147.75 85.221 147.698 85.5283 147.594C85.8356 147.49 86.0986 147.333 86.3174 147.125C86.5361 146.917 86.7028 146.661 86.8174 146.359L89.8955 146.562C89.7393 147.302 89.4189 147.948 88.9346 148.5C88.4554 149.047 87.8356 149.474 87.0752 149.781C86.32 150.083 85.4476 150.234 84.458 150.234ZM95.9658 134V150H92.6377V134H95.9658ZM111.653 134V150H108.271V137.211H108.177L104.513 139.508V136.508L108.474 134H111.653ZM123.464 140.68V143.32H116.167V140.68H123.464ZM132.612 150.219C131.508 150.219 130.524 150.016 129.659 149.609C128.8 149.203 128.118 148.643 127.612 147.93C127.107 147.216 126.844 146.398 126.823 145.477H130.104C130.141 146.096 130.401 146.599 130.886 146.984C131.37 147.37 131.946 147.562 132.612 147.562C133.144 147.562 133.612 147.445 134.019 147.211C134.43 146.971 134.75 146.641 134.979 146.219C135.214 145.792 135.331 145.302 135.331 144.75C135.331 144.187 135.211 143.693 134.972 143.266C134.737 142.839 134.412 142.505 133.995 142.266C133.578 142.026 133.102 141.904 132.565 141.898C132.097 141.898 131.641 141.995 131.198 142.187C130.761 142.38 130.42 142.643 130.175 142.977L127.167 142.438L127.925 134H137.706V136.766H130.714L130.3 140.773H130.394C130.675 140.378 131.099 140.049 131.667 139.789C132.235 139.529 132.87 139.398 133.573 139.398C134.537 139.398 135.396 139.625 136.151 140.078C136.907 140.531 137.503 141.154 137.94 141.945C138.378 142.732 138.594 143.638 138.589 144.664C138.594 145.742 138.344 146.701 137.839 147.539C137.339 148.372 136.638 149.029 135.737 149.508C134.841 149.982 133.8 150.219 132.612 150.219Z" fill="#00B880"/>
</svg>
