<svg width="178" height="178" viewBox="0 0 178 178" fill="none" xmlns="http://www.w3.org/2000/svg">
<path d="M161.248 129.048C164.337 130.76 168.252 129.652 169.738 126.448C175.324 114.406 178.156 101.24 177.993 87.9127C177.804 72.4491 173.589 57.3016 165.764 43.963C157.938 30.6244 146.772 19.5552 133.365 11.8462C119.959 4.1372 104.775 0.0545259 89.3107 0.000542251C73.846 -0.0534414 58.6342 3.92313 45.1743 11.5383C31.7145 19.1535 20.4712 30.1446 12.5526 43.4282C4.63395 56.7118 0.313289 71.8295 0.0164019 87.2914C-0.239475 100.618 2.50118 113.803 8.00258 125.884C9.4662 129.098 13.3732 130.233 16.4739 128.542V128.542C19.5746 126.852 20.6909 122.977 19.2662 119.745C14.8064 109.63 12.5901 98.6405 12.8033 87.5369C13.0576 74.2969 16.7574 61.3516 23.5381 49.9768C30.3188 38.6021 39.9464 29.1905 51.4721 22.6696C62.9977 16.1487 76.0236 12.7435 89.266 12.7898C102.508 12.836 115.51 16.332 126.99 22.9332C138.47 29.5344 148.032 39.013 154.733 50.4348C161.434 61.8566 165.043 74.8274 165.205 88.0689C165.341 99.1737 163.048 110.147 158.518 120.231C157.07 123.453 158.159 127.336 161.248 129.048V129.048Z" fill="#B3EAD9"/>
<path d="M36.1571 101.655C33.0123 101.304 30.6338 98.6454 30.6338 95.481V95.481C30.6338 92.293 33.0468 89.6225 36.2185 89.3003L87.3224 84.1094C94.209 83.4099 100.191 88.8153 100.191 95.7374V95.7374C100.191 102.706 94.1324 108.126 87.207 107.353L36.1571 101.655Z" fill="#00B880"/>
<circle cx="89.5" cy="96.5" r="15.5" fill="#B3EAD9"/>
<path d="M77.8185 128.636V165H70.1303V135.934H69.9173L61.5898 141.154V134.336L70.592 128.636H77.8185Z" fill="#00B880"/>
<path d="M97.4023 148.25L92.2461 167.406H89.3789L94.5352 148.25H97.4023Z" fill="#00B880"/>
<path d="M110.91 165.219C109.806 165.219 108.822 165.015 107.957 164.609C107.098 164.203 106.415 163.643 105.91 162.93C105.405 162.216 105.142 161.398 105.121 160.476H108.402C108.439 161.096 108.699 161.599 109.184 161.984C109.668 162.37 110.243 162.562 110.91 162.562C111.441 162.562 111.91 162.445 112.316 162.211C112.728 161.971 113.048 161.64 113.277 161.219C113.512 160.792 113.629 160.302 113.629 159.75C113.629 159.187 113.509 158.693 113.27 158.265C113.035 157.838 112.71 157.505 112.293 157.265C111.876 157.026 111.4 156.904 110.863 156.898C110.395 156.898 109.939 156.995 109.496 157.187C109.059 157.38 108.717 157.643 108.473 157.976L105.465 157.437L106.223 149H116.004V151.765H109.012L108.598 155.773H108.691C108.973 155.377 109.397 155.049 109.965 154.789C110.533 154.529 111.168 154.398 111.871 154.398C112.835 154.398 113.694 154.625 114.449 155.078C115.204 155.531 115.801 156.154 116.238 156.945C116.676 157.732 116.892 158.638 116.887 159.664C116.892 160.742 116.642 161.7 116.137 162.539C115.637 163.372 114.936 164.029 114.035 164.508C113.139 164.982 112.098 165.219 110.91 165.219Z" fill="#00B880"/>
</svg>
