<svg width="205" height="33" viewBox="0 0 205 33" fill="none" xmlns="http://www.w3.org/2000/svg">
<path d="M24.9319 14.3387C24.4675 14.8059 24.112 15.3697 23.8904 15.9899C23.6689 16.6103 23.587 17.2718 23.6503 17.9274L23.6282 17.9053C23.6934 18.6771 23.5893 19.4537 23.3233 20.1811C23.0573 20.9084 22.6358 21.5689 22.0882 22.1166C21.5406 22.6641 20.88 23.0857 20.1526 23.3516C19.4253 23.6176 18.6487 23.7218 17.877 23.6566L17.8991 23.6786C16.976 23.5927 16.0488 23.7936 15.244 24.2539C14.4392 24.7142 13.796 25.4115 13.4021 26.2508C13.0082 27.09 12.8826 28.0303 13.0426 28.9436C13.2027 29.8567 13.6405 30.6983 14.2964 31.3536C14.9522 32.0089 15.7942 32.4459 16.7075 32.6051C17.6209 32.7643 18.561 32.6379 19.4 32.2432C20.2389 31.8485 20.9355 31.2047 21.3951 30.3995C21.8547 29.5943 22.0548 28.667 21.9681 27.7439L21.9913 27.766C21.9261 26.9943 22.0302 26.2177 22.2962 25.4903C22.5622 24.763 22.9838 24.1024 23.5313 23.5548C24.079 23.0072 24.7395 22.5856 25.4668 22.3197C26.1942 22.0537 26.9708 21.9496 27.7426 22.0148L27.7193 21.9927C28.4733 22.0605 29.2323 21.9368 29.9259 21.6332C30.6194 21.3296 31.2252 20.8558 31.6868 20.2558C32.1485 19.6558 32.4514 18.9489 32.5671 18.2007C32.6828 17.4525 32.6079 16.6872 32.3491 15.9756C32.0903 15.2641 31.6561 14.6294 31.0867 14.1304C30.5174 13.6314 29.8312 13.2841 29.0919 13.1209C28.3526 12.9577 27.584 12.9837 26.8575 13.1965C26.1309 13.4095 25.4699 13.8023 24.9356 14.3387H24.9319Z" fill="white"/>
<path d="M15.8924 20.7902L15.8691 20.7682C16.5249 20.8342 17.1873 20.7537 17.8084 20.5324C18.4293 20.3112 18.9934 19.9547 19.4597 19.4888C19.9259 19.0228 20.283 18.459 20.5046 17.8382C20.7264 17.2173 20.8074 16.5551 20.7418 15.8991L20.7651 15.9212C20.6999 15.1494 20.8041 14.3728 21.0699 13.6454C21.3359 12.9181 21.7576 12.2576 22.3051 11.7099C22.8528 11.1623 23.5133 10.7407 24.2406 10.4749C24.968 10.2088 25.7446 10.1048 26.5164 10.1699L26.4931 10.1479C27.4163 10.2346 28.3437 10.0343 29.1489 9.57457C29.9542 9.11479 30.598 8.41779 30.9925 7.57867C31.387 6.73955 31.5131 5.79915 31.3536 4.88573C31.194 3.9723 30.7566 3.13035 30.1009 2.47468C29.4453 1.81902 28.6033 1.38156 27.6899 1.22201C26.7765 1.06245 25.8361 1.18854 24.9969 1.58309C24.1578 1.97763 23.4609 2.62142 23.001 3.42666C22.5412 4.23188 22.341 5.15935 22.4278 6.08253L22.4057 6.05925C22.471 6.83102 22.3671 7.60774 22.1012 8.33518C21.8354 9.06263 21.4137 9.72326 20.8662 10.271C20.3185 10.8185 19.6579 11.2402 18.9304 11.506C18.2029 11.7719 17.4262 11.8758 16.6545 11.8105L16.6765 11.8338C16.0206 11.7677 15.3582 11.8482 14.7372 12.0695C14.1163 12.2907 13.5522 12.6472 13.0858 13.1132C12.6195 13.5791 12.2626 14.143 12.0408 14.7638C11.8192 15.3846 11.7382 16.0469 11.8038 16.7028L11.7817 16.6808C11.8466 17.4524 11.7424 18.229 11.4764 18.9563C11.2103 19.6835 10.7888 20.344 10.2412 20.8916C9.69361 21.4391 9.03316 21.8606 8.30591 22.1267C7.57867 22.3927 6.80213 22.497 6.03046 22.432L6.05252 22.4541C5.12933 22.3673 4.20186 22.5675 3.39663 23.0274C2.5914 23.4872 1.94761 24.1841 1.55307 25.0233C1.15852 25.8624 1.03242 26.8028 1.19198 27.7162C1.35154 28.6296 1.789 29.4716 2.44466 30.1272C3.10033 30.783 3.94229 31.2204 4.85571 31.3799C5.76913 31.5394 6.70953 31.4134 7.54866 31.0188C8.38777 30.6243 9.08477 29.9806 9.54455 29.1753C10.0044 28.37 10.2046 27.4426 10.1178 26.5194L10.1411 26.5415C10.0759 25.7697 10.1801 24.9931 10.4461 24.2657C10.712 23.5384 11.1336 22.8779 11.6811 22.3302C12.2288 21.7827 12.8893 21.3611 13.6166 21.0952C14.344 20.8292 15.1206 20.725 15.8924 20.7902Z" fill="white"/>
<path d="M7.68209 18.3307C8.14647 17.8636 8.50201 17.2998 8.72334 16.6794C8.94466 16.0591 9.02631 15.3975 8.96246 14.742L8.98572 14.764C8.92054 13.9921 9.02464 13.2152 9.29077 12.4877C9.5569 11.7601 9.97866 11.0995 10.5266 10.5518C11.0745 10.0041 11.7353 9.58266 12.4629 9.31685C13.1906 9.05102 13.9675 8.94725 14.7394 9.01277L14.7161 8.99072C15.639 9.07718 16.5661 8.87687 17.371 8.41711C18.1758 7.95737 18.8192 7.26054 19.2136 6.42169C19.6079 5.58282 19.7338 4.64276 19.5743 3.72968C19.4148 2.8166 18.9774 1.97496 18.322 1.31954C17.6666 0.664113 16.8249 0.226803 15.9119 0.0672536C14.9988 -0.0923084 14.0587 0.03367 13.2199 0.427974C12.381 0.822278 11.6842 1.46573 11.2245 2.27059C10.7647 3.07544 10.5643 4.00253 10.6508 4.9254L10.6288 4.90334C10.694 5.67506 10.5898 6.45169 10.3238 7.17904C10.0578 7.90639 9.63636 8.56692 9.08873 9.11455C8.54111 9.66218 7.88056 10.0837 7.15321 10.3496C6.42587 10.6156 5.64924 10.7198 4.87753 10.6546L4.89958 10.6766C4.14554 10.609 3.38662 10.7329 2.69316 11.0366C1.9997 11.3403 1.39413 11.8143 0.932572 12.4144C0.471015 13.0144 0.168407 13.7213 0.0527694 14.4695C-0.0628558 15.2177 0.0122387 15.983 0.271094 16.6944C0.529949 17.4059 0.964208 18.0404 1.53361 18.5393C2.10301 19.0384 2.78914 19.3855 3.52842 19.5487C4.26769 19.7117 5.0362 19.6856 5.76272 19.4728C6.48924 19.2599 7.15025 18.8671 7.68453 18.3307H7.68209Z" fill="white"/>
<path d="M49.736 7.23981H45.848V24.9998H49.736V7.23981Z" fill="white"/>
<path d="M56.6818 24.9998V18.5678C56.6818 16.5518 57.7618 15.9758 58.8178 15.9758C59.9938 15.9758 60.7618 16.6958 60.7618 18.1838V24.9998H64.4578V18.5678C64.4578 16.5278 65.5138 15.9518 66.5698 15.9518C67.7458 15.9518 68.5378 16.6718 68.5378 18.1838V24.9998H72.2338V17.1518C72.2338 14.4158 70.6978 12.6158 67.6018 12.6158C65.8738 12.6158 64.4578 13.4558 63.8338 14.7278C63.1378 13.4558 61.9858 12.6158 60.1858 12.6158C58.4578 12.6158 57.2818 13.4078 56.6818 14.2478L56.4418 12.9998H52.9858V24.9998H56.6818Z" fill="white"/>
<path d="M78.5004 25.3118C80.3004 25.3118 81.8844 24.5198 82.2684 23.4158L82.5084 24.9998H85.7724V17.9918C85.7724 14.5598 83.8044 12.6158 80.3244 12.6158C76.8924 12.6158 74.6604 14.3918 74.6604 17.1038H77.7324C77.7324 16.0238 78.5724 15.4238 80.1324 15.4238C81.4524 15.4238 82.1724 16.0478 82.1724 17.2238V17.4158L78.8124 17.6798C75.9324 17.8958 74.3724 19.2638 74.3724 21.4718C74.3724 23.8238 75.9564 25.3118 78.5004 25.3118ZM79.7964 22.5758C78.6684 22.5758 78.1404 22.1678 78.1404 21.3038C78.1404 20.5358 78.7164 20.1758 80.3244 20.0318L82.1964 19.8638V20.5118C82.1964 21.8798 81.2124 22.5758 79.7964 22.5758Z" fill="white"/>
<path d="M87.8233 18.7838C87.8233 22.3838 90.1513 24.8558 93.5113 24.8558C95.0713 24.8558 96.4153 24.3038 97.1353 23.4398V24.9998C97.1353 26.7038 96.0073 27.7598 94.2313 27.7598C92.5993 27.7598 91.5913 26.9678 91.5193 25.6238H87.7753C88.1113 29.0318 90.5833 31.1198 94.2553 31.1198C98.3593 31.1198 100.831 28.5278 100.831 24.2318V12.9998H97.3513L97.1593 14.1998C96.5113 13.2158 95.2153 12.5918 93.5833 12.5918C90.1993 12.5918 87.8233 15.1358 87.8233 18.7838ZM91.5433 18.6878C91.5433 16.9838 92.6713 15.8078 94.3033 15.8078C96.0073 15.8078 97.1353 16.9358 97.1353 18.6878C97.1353 20.4638 96.0073 21.6398 94.3273 21.6398C92.6953 21.6398 91.5433 20.4158 91.5433 18.6878Z" fill="white"/>
<path d="M105.435 11.1278C106.587 11.1278 107.523 10.1918 107.523 9.01581C107.523 7.83981 106.587 6.92781 105.435 6.92781C104.259 6.92781 103.323 7.83981 103.323 9.01581C103.323 10.1918 104.259 11.1278 105.435 11.1278ZM103.611 24.9998H107.307V12.9998H103.611V24.9998Z" fill="white"/>
<path d="M113.776 24.9998V18.4238C113.776 16.9358 114.712 15.9758 116.176 15.9758C117.448 15.9758 118.288 16.9598 118.288 18.4718V24.9998H121.984V17.5838C121.984 14.4398 120.328 12.6158 117.472 12.6158C115.912 12.6158 114.544 13.2158 113.8 14.2478L113.56 12.9998H110.08V24.9998H113.776Z" fill="white"/>
<path d="M124.034 18.7838C124.034 22.3838 126.362 24.8558 129.722 24.8558C131.282 24.8558 132.626 24.3038 133.346 23.4398V24.9998C133.346 26.7038 132.218 27.7598 130.442 27.7598C128.81 27.7598 127.802 26.9678 127.73 25.6238H123.986C124.322 29.0318 126.794 31.1198 130.466 31.1198C134.57 31.1198 137.042 28.5278 137.042 24.2318V12.9998H133.562L133.37 14.1998C132.722 13.2158 131.426 12.5918 129.794 12.5918C126.41 12.5918 124.034 15.1358 124.034 18.7838ZM127.754 18.6878C127.754 16.9838 128.882 15.8078 130.514 15.8078C132.218 15.8078 133.346 16.9358 133.346 18.6878C133.346 20.4638 132.218 21.6398 130.538 21.6398C128.906 21.6398 127.754 20.4158 127.754 18.6878Z" fill="white"/>
<path d="M153.829 19.0958C157.453 19.0958 159.877 16.7198 159.877 13.1678C159.877 9.61581 157.453 7.23981 153.829 7.23981H146.629V24.9998H150.517V19.0958H153.829ZM152.965 10.6958C154.837 10.6958 155.773 11.5118 155.773 13.1678C155.773 14.8238 154.837 15.6398 152.965 15.6398H150.517V10.6958H152.965Z" fill="white"/>
<path d="M165.572 24.9998V6.90381H161.876V24.9998H165.572Z" fill="white"/>
<path d="M171.969 25.3118C173.769 25.3118 175.353 24.5198 175.737 23.4158L175.977 24.9998H179.241V17.9918C179.241 14.5598 177.273 12.6158 173.793 12.6158C170.361 12.6158 168.129 14.3918 168.129 17.1038H171.201C171.201 16.0238 172.041 15.4238 173.601 15.4238C174.921 15.4238 175.641 16.0478 175.641 17.2238V17.4158L172.281 17.6798C169.401 17.8958 167.841 19.2638 167.841 21.4718C167.841 23.8238 169.425 25.3118 171.969 25.3118ZM173.265 22.5758C172.137 22.5758 171.609 22.1678 171.609 21.3038C171.609 20.5358 172.185 20.1758 173.793 20.0318L175.665 19.8638V20.5118C175.665 21.8798 174.681 22.5758 173.265 22.5758Z" fill="white"/>
<path d="M191.42 24.9998V21.9278H185.9L191.42 16.0718V12.9998H181.364V16.0718H186.74L181.364 21.9278V24.9998H191.42Z" fill="white"/>
<path d="M197.305 25.3118C199.105 25.3118 200.689 24.5198 201.073 23.4158L201.313 24.9998H204.577V17.9918C204.577 14.5598 202.609 12.6158 199.129 12.6158C195.697 12.6158 193.465 14.3918 193.465 17.1038H196.537C196.537 16.0238 197.377 15.4238 198.937 15.4238C200.257 15.4238 200.977 16.0478 200.977 17.2238V17.4158L197.617 17.6798C194.737 17.8958 193.177 19.2638 193.177 21.4718C193.177 23.8238 194.761 25.3118 197.305 25.3118ZM198.601 22.5758C197.473 22.5758 196.945 22.1678 196.945 21.3038C196.945 20.5358 197.521 20.1758 199.129 20.0318L201.001 19.8638V20.5118C201.001 21.8798 200.017 22.5758 198.601 22.5758Z" fill="white"/>
</svg>
