<svg width="22" height="22" fill="none" xmlns="http://www.w3.org/2000/svg"><path d="M15.225 4.231a.846.846 0 1 1-1.692 0 .846.846 0 0 1 1.692 0ZM18.608 7.615a.846.846 0 1 1-1.692 0 .846.846 0 0 1 1.692 0ZM13.534 9.308a.846.846 0 1 1-1.693 0 .846.846 0 0 1 1.693 0ZM10.15 2.538a.846.846 0 1 1-1.693 0 .846.846 0 0 1 1.693 0ZM3.384 4.231a.846.846 0 1 1-1.692 0 .846.846 0 0 1 1.692 0Z" fill="#fff"/><path d="M10.15 4.231a.846.846 0 1 1-1.692 0 .846.846 0 0 1 1.692 0ZM3.384 5.923a.846.846 0 1 1-1.693 0 .846.846 0 0 1 1.693 0Z" fill="#fff"/><path d="M10.15 5.923a.846.846 0 1 1-1.693 0 .846.846 0 0 1 1.693 0ZM3.384 7.615a.846.846 0 1 1-1.693 0 .846.846 0 0 1 1.693 0Z" fill="#fff"/><path d="M5.076 7.615a.846.846 0 1 1-1.693 0 .846.846 0 0 1 1.693 0Z" fill="#fff"/><path d="M6.767 7.615a.846.846 0 1 1-1.692 0 .846.846 0 0 1 1.692 0ZM10.15 7.615a.846.846 0 1 1-1.692 0 .846.846 0 0 1 1.692 0Z" fill="#fff"/><path d="M11.842 7.615a.846.846 0 1 1-1.692 0 .846.846 0 0 1 1.692 0Z" fill="#fff"/><path d="M13.534 7.615a.846.846 0 1 1-1.693 0 .846.846 0 0 1 1.693 0Z" fill="#fff"/><path d="M15.225 7.615a.846.846 0 1 1-1.692 0 .846.846 0 0 1 1.692 0ZM6.767 9.308a.846.846 0 1 1-1.692 0 .846.846 0 0 1 1.692 0ZM11.842 9.308a.846.846 0 1 1-1.693 0 .846.846 0 0 1 1.693 0Z" fill="#fff"/><path d="M15.225 9.308a.846.846 0 1 1-1.692 0 .846.846 0 0 1 1.692 0ZM6.767 11a.846.846 0 1 1-1.692 0 .846.846 0 0 1 1.692 0ZM10.15 11a.846.846 0 1 1-1.692 0 .846.846 0 0 1 1.692 0Z" fill="#fff"/><path d="M11.842 11a.846.846 0 1 1-1.692 0 .846.846 0 0 1 1.692 0Z" fill="#fff"/><path d="M13.534 11a.846.846 0 1 1-1.693 0 .846.846 0 0 1 1.693 0Z" fill="#fff"/><path d="M15.225 11a.846.846 0 1 1-1.692 0 .846.846 0 0 1 1.692 0ZM6.767 12.692a.846.846 0 1 1-1.692 0 .846.846 0 0 1 1.692 0ZM10.15 12.692a.846.846 0 1 1-1.692 0 .846.846 0 0 1 1.692 0Z" fill="#fff"/><path d="M11.842 12.692a.846.846 0 1 1-1.692 0 .846.846 0 0 1 1.692 0ZM15.225 12.692a.846.846 0 1 1-1.692 0 .846.846 0 0 1 1.692 0Z" fill="#fff"/><path d="M15.225 14.385a.846.846 0 1 1-1.692 0 .846.846 0 0 1 1.692 0Z" fill="#fff"/><path d="M16.916 14.385a.846.846 0 1 1-1.692 0 .846.846 0 0 1 1.692 0Z" fill="#fff"/><path d="M18.608 14.385a.846.846 0 1 1-1.692 0 .846.846 0 0 1 1.692 0Z" fill="#fff"/><path d="M20.3 14.385a.846.846 0 1 1-1.692 0 .846.846 0 0 1 1.692 0ZM10.15 16.077a.846.846 0 1 1-1.693 0 .846.846 0 0 1 1.693 0" fill="#fff"/><path d="M11.842 16.077a.846.846 0 1 1-1.693 0 .846.846 0 0 1 1.693 0M5.076 17.77a.846.846 0 1 1-1.693 0 .846.846 0 0 1 1.693 0Z" fill="#fff"/><path d="M6.767 17.77a.846.846 0 1 1-1.692 0 .846.846 0 0 1 1.692 0Z" fill="#fff"/><path d="M8.459 17.77a.846.846 0 1 1-1.693 0 .846.846 0 0 1 1.693 0Z" fill="#fff"/><path d="M10.15 17.77a.846.846 0 1 1-1.692 0 .846.846 0 0 1 1.692 0Z" fill="#fff"/><path d="M11.842 17.77a.846.846 0 1 1-1.692 0 .846.846 0 0 1 1.692 0Z" fill="#fff"/><path d="M13.534 17.77a.846.846 0 1 1-1.693 0 .846.846 0 0 1 1.693 0ZM5.076 19.462a.846.846 0 1 1-1.693 0 .846.846 0 0 1 1.693 0ZM10.15.846a.846.846 0 1 1-1.692 0 .846.846 0 0 1 1.692 0ZM3.384 2.538a.846.846 0 1 1-1.693 0 .846.846 0 0 1 1.693 0ZM8.459 2.538a.846.846 0 1 1-1.693 0 .846.846 0 0 1 1.693 0ZM11.842 2.538a.846.846 0 1 1-1.693 0 .846.846 0 0 1 1.693 0ZM1.692 4.231a.846.846 0 1 1-1.692 0 .846.846 0 0 1 1.692 0ZM5.076 4.231a.846.846 0 1 1-1.693 0 .846.846 0 0 1 1.693 0ZM16.916 4.231a.846.846 0 1 1-1.692 0 .846.846 0 0 1 1.692 0ZM13.534 5.923a.846.846 0 1 1-1.693 0 .846.846 0 0 1 1.693 0Z" fill="#fff"/><path d="M15.225 5.923a.846.846 0 1 1-1.692 0 .846.846 0 0 1 1.692 0Z" fill="#fff"/><path d="M16.916 5.923a.846.846 0 1 1-1.692 0 .846.846 0 0 1 1.692 0Z" fill="#fff"/><path d="M18.608 5.923a.846.846 0 1 1-1.692 0 .846.846 0 0 1 1.692 0ZM16.916 7.615a.846.846 0 1 1-1.692 0 .846.846 0 0 1 1.692 0ZM10.15 9.308a.846.846 0 1 1-1.692 0 .846.846 0 0 1 1.692 0Z" fill="#fff"/><path d="M16.916 9.308a.846.846 0 1 1-1.692 0 .846.846 0 0 1 1.692 0ZM8.459 11a.846.846 0 1 1-1.692 0 .846.846 0 0 1 1.692 0Z" fill="#fff"/><path d="M8.459 12.692a.846.846 0 1 1-1.693 0 .846.846 0 0 1 1.693 0ZM13.534 12.692a.846.846 0 1 1-1.693 0 .846.846 0 0 1 1.693 0ZM20.3 12.692a.846.846 0 1 1-1.692 0 .846.846 0 0 1 1.692 0Z" fill="#fff"/><path d="M8.459 14.385a.846.846 0 1 1-1.693 0 .846.846 0 0 1 1.693 0Z" fill="#fff"/><path d="M10.15 14.385a.846.846 0 1 1-1.693 0 .846.846 0 0 1 1.693 0Z" fill="#fff"/><path d="M11.842 14.385a.846.846 0 1 1-1.693 0 .846.846 0 0 1 1.693 0ZM21.991 14.385a.846.846 0 1 1-1.692 0 .846.846 0 0 1 1.692 0ZM20.3 16.077a.846.846 0 1 1-1.692 0 .846.846 0 0 1 1.692 0M3.384 19.462a.846.846 0 1 1-1.692 0 .846.846 0 0 1 1.692 0ZM6.767 19.462a.846.846 0 1 1-1.692 0 .846.846 0 0 1 1.692 0ZM5.076 21.154a.846.846 0 1 1-1.693 0 .846.846 0 0 1 1.693 0" fill="#fff"/></svg>