<svg width="1324" height="298" viewBox="0 0 1324 298" fill="none" xmlns="http://www.w3.org/2000/svg">
    <path d="M53.2472 14.8182H0.512785V233H53.2472V14.8182ZM112.353 233H164.448V136.161C164.448 119.967 173.929 109.634 187.566 109.634C201.096 109.634 210.044 119.115 210.044 134.243V233H260.115V135.308C260.115 119.648 268.745 109.634 283.127 109.634C296.337 109.634 305.712 118.476 305.712 134.776V233H357.807V122.844C357.807 88.2202 336.5 67.233 305.605 67.233C281.422 67.233 262.353 79.9105 256.28 99.4062H254.576C250.208 79.804 232.63 67.233 209.938 67.233C187.566 67.233 170.52 79.4844 163.702 99.4062H161.891V69.3636H112.353V233ZM462.216 235.77C485.015 235.77 500.782 226.928 509.73 210.202H511.009V233H560.015V121.778C560.015 87.1548 529.226 67.233 487.571 67.233C443.573 67.233 418.644 89.392 414.489 119.222L462.536 120.926C464.773 110.486 473.402 104.094 487.145 104.094C499.929 104.094 508.026 110.273 508.026 121.246V121.778C508.026 131.793 497.159 133.923 469.248 136.374C436.115 139.143 408.417 151.395 408.417 187.616C408.417 220.003 430.895 235.77 462.216 235.77ZM478.303 201.679C466.265 201.679 457.742 195.926 457.742 185.06C457.742 174.513 466.051 168.121 480.86 165.884C490.554 164.499 502.486 162.368 508.346 159.278V174.832C508.346 190.812 494.922 201.679 478.303 201.679ZM694.147 297.773C743.472 297.773 777.137 275.294 777.137 233.639V69.3636H725.255V97.3821H723.763C717.478 82.3608 703.202 67.233 677.421 67.233C643.223 67.233 612.222 93.5469 612.222 150.969C612.222 206.58 641.732 230.763 677.634 230.763C701.711 230.763 717.797 219.577 723.976 204.449H725.787V233.213C725.787 254.094 713.003 261.658 695.532 261.658C678.806 261.658 668.792 255.266 666.022 245.145L616.696 247.915C620.532 276.572 647.485 297.773 694.147 297.773ZM695.745 192.837C676.462 192.837 665.702 177.176 665.702 150.969C665.702 124.868 676.355 107.929 695.745 107.929C714.814 107.929 725.894 124.442 725.894 150.969C725.894 177.283 714.708 192.837 695.745 192.837ZM836.349 233H888.444V69.3636H836.349V233ZM862.45 50.294C877.258 50.294 889.19 39.108 889.19 25.3651C889.19 11.6221 877.258 0.542601 862.45 0.542601C847.748 0.542601 835.71 11.6221 835.71 25.3651C835.71 39.108 847.748 50.294 862.45 50.294ZM999.698 139.676C999.804 121.033 1010.67 109.953 1027.18 109.953C1043.7 109.953 1053.5 120.82 1053.39 138.93V233H1105.49V128.703C1105.59 91.8423 1083.11 67.233 1048.7 67.233C1024.52 67.233 1006.2 79.4844 998.952 99.4062H997.141V69.3636H947.603V233H999.698V139.676ZM1240.02 297.773C1289.34 297.773 1323.01 275.294 1323.01 233.639V69.3636H1271.13V97.3821H1269.63C1263.35 82.3608 1249.07 67.233 1223.29 67.233C1189.09 67.233 1158.09 93.5469 1158.09 150.969C1158.09 206.58 1187.6 230.763 1223.5 230.763C1247.58 230.763 1263.67 219.577 1269.85 204.449H1271.66V233.213C1271.66 254.094 1258.87 261.658 1241.4 261.658C1224.68 261.658 1214.66 255.266 1211.89 245.145L1162.57 247.915C1166.4 276.572 1193.36 297.773 1240.02 297.773ZM1241.62 192.837C1222.33 192.837 1211.57 177.176 1211.57 150.969C1211.57 124.868 1222.23 107.929 1241.62 107.929C1260.69 107.929 1271.76 124.442 1271.76 150.969C1271.76 177.283 1260.58 192.837 1241.62 192.837Z"
          fill="#FAFAFC" />
</svg>
